<svg width="16" height="16" viewBox="0 0 16 16" fill="none" xmlns="http://www.w3.org/2000/svg">
<path d="M12 5.25C12 5.94036 11.4404 6.5 10.75 6.5C10.0596 6.5 9.5 5.94036 9.5 5.25C9.5 4.55964 10.0596 4 10.75 4C11.4404 4 12 4.55964 12 5.25Z" fill="#333333"/>
<path d="M4.5 14.25H3.25C2.42157 14.25 1.75 13.5784 1.75 12.75V3.25C1.75 2.42157 2.42157 1.75 3.25 1.75H12.75C13.5784 1.75 14.25 2.42157 14.25 3.25V6M2 10.3732C3.41858 9.45071 3.97479 9.16076 5.39336 8.23828C5.93042 7.88905 6.64752 7.92705 7.14039 8.33087L7.44257 8.57166" stroke="#333333" stroke-width="1.5" stroke-linejoin="round"/>
<path d="M12.5 7L13.5889 9.41106L16 10.5L13.5889 11.5889L12.5 14L11.4111 11.5889L9 10.5L11.4111 9.41106L12.5 7Z" fill="#333333"/>
<path d="M8 12L8.67882 13.3212L10 14L8.67882 14.6788L8 16L7.32118 14.6788L6 14L7.32118 13.3212L8 12Z" fill="#333333"/>
</svg>
