<svg width="16" height="16" viewBox="0 0 16 16" fill="none" xmlns="http://www.w3.org/2000/svg">
<path fill-rule="evenodd" clip-rule="evenodd" d="M3.5 1.00024C2.11929 1.00024 1 2.11953 1 3.50024V13.5002C1 14.881 2.11929 16.0002 3.5 16.0002H12.5C13.8807 16.0002 15 14.881 15 13.5002V3.50024C15 2.11953 13.8807 1.00024 12.5 1.00024H3.5ZM3 3.50024C3 3.2241 3.22386 3.00024 3.5 3.00024H12.5C12.7761 3.00024 13 3.2241 13 3.50024V13.5002C13 13.7764 12.7761 14.0002 12.5 14.0002H3.5C3.22386 14.0002 3 13.7764 3 13.5002V3.50024Z" fill="#757575"/>
<path fill-rule="evenodd" clip-rule="evenodd" d="M11.2071 6.79289C11.5976 7.18342 11.5976 7.81658 11.2071 8.20711L8.45711 10.9571C8.26957 11.1446 8.01522 11.25 7.75 11.25C7.48478 11.25 7.23043 11.1446 7.04289 10.9571L5.29289 9.20711C4.90237 8.81658 4.90237 8.18342 5.29289 7.79289C5.68342 7.40237 6.31658 7.40237 6.70711 7.79289L7.75 8.83579L9.79289 6.79289C10.1834 6.40237 10.8166 6.40237 11.2071 6.79289Z" fill="#575757"/>
<path d="M4 1.00024C4 0.447959 4.44772 0.000244141 5 0.000244141H11C11.5523 0.000244141 12 0.447959 12 1.00024V3.00024C12 3.55253 11.5523 4.00024 11 4.00024H5C4.44772 4.00024 4 3.55253 4 3.00024V1.00024Z" fill="#575757"/>
</svg>
