<svg width="32" height="32" viewBox="0 0 32 32" fill="none" xmlns="http://www.w3.org/2000/svg">
<path d="M0 4C0 1.79086 1.79086 0 4 0H28C30.2091 0 32 1.79086 32 4V28C32 30.2091 30.2091 32 28 32H4C1.79086 32 0 30.2091 0 28V4Z" fill="#069E61"/>
<path d="M0 26H32V28C32 30.2091 30.2091 32 28 32H4C1.79086 32 0 30.2091 0 28V26Z" fill="#008852"/>
<path d="M28 8.74206e-08C30.2091 1.83985e-07 32 1.79086 32 4L32 28C32 30.2091 30.2091 32 28 32H26L26 0L28 8.74206e-08Z" fill="#07B670"/>
<path d="M26 32H28C30.2091 32 32 30.2091 32 28L32 26H26V32Z" fill="#069E61"/>
<path fill-rule="evenodd" clip-rule="evenodd" d="M8.45328 6.59233C9.59842 5.4412 11.4514 4.83847 13.751 5.03795C16.154 5.2464 17.4934 6.34134 18.1868 7.50419C18.5189 8.06096 18.6832 8.59961 18.7653 8.9987C18.8067 9.19943 18.8281 9.36895 18.8392 9.49361C18.8447 9.55608 18.8478 9.60774 18.8494 9.64693C18.8502 9.66654 18.8507 9.68308 18.851 9.69633L18.8512 9.71375L18.8513 9.72058L18.8513 9.72352L18.8513 10.0002H16.8471V9.67119C16.8418 9.61239 16.8305 9.51901 16.8064 9.402C16.7578 9.16559 16.6604 8.84936 16.4691 8.52855C16.1159 7.93623 15.3619 7.1852 13.5782 7.03047C11.6911 6.86677 10.4871 7.38369 9.87117 8.00285C9.27371 8.60343 9.13533 9.37438 9.46108 10.1062C9.68643 10.6124 10.1911 11.0182 11.0773 11.3693C11.8366 11.6702 12.7198 11.8736 13.6835 12.0956C13.8534 12.1347 14.0259 12.1744 14.2006 12.2154C15.2991 12.4728 16.5213 12.7852 17.4668 13.3573C17.9558 13.6531 18.4103 14.0403 18.7406 14.5617C19.0764 15.0917 19.25 15.7076 19.25 16.4005C19.25 18.4365 17.9197 19.7779 16.3145 20.4416C14.7325 21.0956 12.7592 21.1688 11.0104 20.6944C8.96989 20.1408 7.86863 19.0008 7.30414 17.9306C7.02958 17.4101 6.89201 16.9261 6.82264 16.5675C6.78783 16.3875 6.76029 16.1253 6.76029 16.1253L6.75024 16.0002H8.78625C8.78625 16.0002 8.78183 16.1146 8.78625 16.1877C8.80648 16.5226 8.90798 16.6844 9.07314 16.9975C9.38807 17.5946 10.0479 18.361 11.534 18.7642C12.9086 19.1371 14.4242 19.0589 15.5503 18.5933C16.6532 18.1373 17.25 17.3907 17.25 16.4005C17.25 16.0558 17.1683 15.8169 17.0511 15.632C16.9285 15.4385 16.7326 15.2507 16.4315 15.0685C15.7968 14.6845 14.8802 14.4288 13.7443 14.1626C13.5882 14.1261 13.4279 14.0893 13.2646 14.0518C12.3099 13.8328 11.2538 13.5905 10.3406 13.2287C9.26414 12.8022 8.17351 12.1316 7.63394 10.9195C6.96286 9.41199 7.28966 7.76203 8.45328 6.59233Z" fill="white"/>
</svg>
