<svg width="33" height="17" viewBox="0 0 33 17" fill="none" xmlns="http://www.w3.org/2000/svg">
<path d="M0 0H25C29.4183 0 33 3.58172 33 8V17H8C3.58172 17 0 13.4183 0 9V0Z" fill="url(#paint0_linear_4496_14967)"/>
<path d="M5.91 12V4.6H7.42L9.57 8.54L10.31 10.14H10.36C10.28 9.37 10.17 8.39 10.17 7.55V4.6H11.57V12H10.07L7.93 8.04L7.18 6.45H7.13C7.2 7.25 7.31 8.18 7.31 9.03V12H5.91ZM13.4002 12V4.6H17.9402V5.83H14.8802V7.54H17.4802V8.78H14.8802V10.76H18.0502V12H13.4002ZM20.2526 12L18.8226 4.6H20.3326L20.9226 8.21C21.0326 8.99 21.1526 9.78 21.2626 10.57H21.3026C21.4526 9.78 21.6126 8.98 21.7726 8.21L22.6326 4.6H23.8926L24.7526 8.21C24.9126 8.97 25.0626 9.77 25.2226 10.57H25.2726C25.3826 9.77 25.4926 8.98 25.6026 8.21L26.1826 4.6H27.5926L26.2226 12H24.3826L23.5526 8.34C23.4326 7.76 23.3226 7.19 23.2326 6.63H23.1926C23.0926 7.19 22.9926 7.76 22.8726 8.34L22.0626 12H20.2526Z" fill="#A22D71"/>
<defs>
<linearGradient id="paint0_linear_4496_14967" x1="2.30556e-07" y1="8" x2="33" y2="8" gradientUnits="userSpaceOnUse">
<stop stop-color="#FFDCF1"/>
<stop offset="1" stop-color="#FFD8D9"/>
</linearGradient>
</defs>
</svg>
