<svg width="36" height="36" viewBox="0 0 36 36" fill="none" xmlns="http://www.w3.org/2000/svg">
<circle cx="18" cy="18" r="18" fill="#F6EFFF"/>
<g clip-path="url(#clip0_4496_14981)">
<path fill-rule="evenodd" clip-rule="evenodd" d="M10 13.5C10 12.1193 11.1193 11 12.5 11H22.5C23.8807 11 25 12.1193 25 13.5V17.0156V23.5C25 24.8807 23.8807 26 22.5 26L12.5 26C11.1193 26 10 24.8807 10 23.5V13.5ZM12.5 13C12.2239 13 12 13.2239 12 13.5V18.1696L12.2797 17.9869L12.2799 17.9868L12.2801 17.9867L12.2803 17.9865C12.8198 17.6342 13.3599 17.2815 14.0699 16.8198C14.9693 16.2349 16.1635 16.2953 16.9958 16.9772C17.0042 16.9841 17.0125 16.9912 17.0208 16.9983L23 22.2332V17.0156V13.5C23 13.2239 22.7761 13 22.5 13H12.5ZM12 23.5V20.5574C12.5148 20.2222 12.9442 19.9417 13.3732 19.6616L13.3734 19.6614L13.3734 19.6614C13.913 19.309 14.4518 18.9571 15.1602 18.4965C15.3314 18.3851 15.5656 18.398 15.7192 18.5171L21.9819 24L12.5 24C12.2239 24 12 23.7761 12 23.5ZM20.5 17C21.3284 17 22 16.3284 22 15.5C22 14.6716 21.3284 14 20.5 14C19.6716 14 19 14.6716 19 15.5C19 16.3284 19.6716 17 20.5 17Z" fill="#9348F3"/>
</g>
<defs>
<clipPath id="clip0_4496_14981">
<rect width="16" height="16" fill="white" transform="translate(10 10)"/>
</clipPath>
</defs>
</svg>
