<svg width="16" height="16" viewBox="0 0 16 16" fill="none" xmlns="http://www.w3.org/2000/svg">
<path d="M5.75 4.75H10.25" stroke="#253453" stroke-opacity="0.9" stroke-width="1.5" stroke-linecap="round" stroke-linejoin="round"/>
<path d="M6 14.25H4.25C3.42157 14.25 2.75 13.5784 2.75 12.75V3.25C2.75 2.42157 3.42157 1.75 4.25 1.75H11.75C12.5784 1.75 13.25 2.42157 13.25 3.25V6.5" stroke="#253453" stroke-opacity="0.9" stroke-width="1.5" stroke-linejoin="round"/>
<path d="M13.5 11C13.5 11.0145 13.4998 11.029 13.4995 11.0434C14.2164 11.2125 14.75 11.8564 14.75 12.625C14.75 13.5208 14.0252 14.2473 13.13 14.25L13.125 14.25H10C9.0335 14.25 8.25 13.4665 8.25 12.5C8.25 11.7043 8.78101 11.0327 9.50798 10.8201C9.59893 9.79983 10.4561 9 11.5 9C12.6046 9 13.5 9.89543 13.5 11Z" stroke="#253453" stroke-opacity="0.9" stroke-width="1.5"/>
</svg>
