<svg width="36" height="36" viewBox="0 0 36 36" fill="none" xmlns="http://www.w3.org/2000/svg">
<circle cx="18" cy="18" r="18" fill="#FFF2F2"/>
<path fill-rule="evenodd" clip-rule="evenodd" d="M10 13.5C10 12.1193 11.1193 11 12.5 11H22.5C23.8807 11 25 12.1193 25 13.5V17.9888V23.5C25 24.8807 23.8807 26 22.5 26L12.5 26C11.1193 26 10 24.8807 10 23.5V13.5ZM12.5 13C12.2239 13 12 13.2239 12 13.5V23.5C12 23.7761 12.2239 24 12.5 24L22.5 24C22.7761 24 23 23.7761 23 23.5V17.9888V13.5C23 13.2239 22.7761 13 22.5 13H12.5Z" fill="#DD3332"/>
<g clip-path="url(#clip0_4496_14993)">
<path fill-rule="evenodd" clip-rule="evenodd" d="M18.375 18V16H19C19.5523 16 20 16.4477 20 17C20 17.5523 19.5523 18 19 18H18.625H18.375ZM16.375 18V14.5543C16.375 14.2482 16.6232 14 16.9293 14H19C20.6569 14 22 15.3431 22 17C22 18.6569 20.6569 20 19 20H18.625V22.4457C18.625 22.7518 18.3768 23 18.0707 23H15.5C14.1193 23 13 21.8807 13 20.5C13 19.1193 14.1193 18 15.5 18H16.375ZM16.625 20H16.375H15.5C15.2239 20 15 20.2239 15 20.5C15 20.7761 15.2239 21 15.5 21H16.625V20Z" fill="#DD3332"/>
</g>
<defs>
<clipPath id="clip0_4496_14993">
<rect width="9" height="9" fill="white" transform="translate(13 14)"/>
</clipPath>
</defs>
</svg>
