<svg width="32" height="32" viewBox="0 0 32 32" fill="none" xmlns="http://www.w3.org/2000/svg">
<path d="M0 4C0 1.79086 1.79086 0 4 0H28C30.2091 0 32 1.79086 32 4V28C32 30.2091 30.2091 32 28 32H4C1.79086 32 0 30.2091 0 28V4Z" fill="#F5670F"/>
<path d="M0 26H32V28C32 30.2091 30.2091 32 28 32H4C1.79086 32 0 30.2091 0 28V26Z" fill="#DF4D00"/>
<path d="M28 8.74206e-08C30.2091 1.83985e-07 32 1.79086 32 4L32 28C32 30.2091 30.2091 32 28 32H26L26 0L28 8.74206e-08Z" fill="#FF8940"/>
<path d="M26 32H28C30.2091 32 32 30.2091 32 28L32 26H26V32Z" fill="#F5670F"/>
<path fill-rule="evenodd" clip-rule="evenodd" d="M8 6H15.5C17.9853 6 20 8.01472 20 10.5C20 12.9853 17.9853 15 15.5 15H10V20H8V6ZM10 13H15.5C16.8807 13 18 11.8807 18 10.5C18 9.11929 16.8807 8 15.5 8H10V13Z" fill="white"/>
</svg>
