<svg width="16" height="16" viewBox="0 0 16 16" fill="none" xmlns="http://www.w3.org/2000/svg">
<g clip-path="url(#clip0_4338_18912)">
<path fill-rule="evenodd" clip-rule="evenodd" d="M8 16C12.4183 16 16 12.4183 16 8C16 3.58172 12.4183 0 8 0C3.58172 0 0 3.58172 0 8C0 12.4183 3.58172 16 8 16ZM11.7068 4.29291C12.0974 4.68343 12.0974 5.3166 11.7068 5.70712L9.41397 8L11.7069 10.2929C12.0974 10.6834 12.0974 11.3166 11.7069 11.7071C11.3164 12.0976 10.6832 12.0976 10.2927 11.7071L7.99976 9.41421L5.70685 11.7071C5.31632 12.0976 4.68316 12.0976 4.29263 11.7071C3.90211 11.3166 3.90211 10.6834 4.29263 10.2929L6.58554 8L4.29267 5.70712C3.90214 5.3166 3.90214 4.68343 4.29267 4.29291C4.68319 3.90238 5.31635 3.90238 5.70688 4.29291L7.99976 6.58579L10.2926 4.29291C10.6832 3.90238 11.3163 3.90238 11.7068 4.29291Z" fill="#DD3332"/>
</g>
<defs>
<clipPath id="clip0_4338_18912">
<rect width="16" height="16" fill="white"/>
</clipPath>
</defs>
</svg>
