<svg width="16" height="16" viewBox="0 0 16 16" fill="none" xmlns="http://www.w3.org/2000/svg">
<path d="M0 2C0 0.895431 0.895431 0 2 0H14C15.1046 0 16 0.895431 16 2V14C16 15.1046 15.1046 16 14 16H2C0.895431 16 0 15.1046 0 14V2Z" fill="#6F7B84"/>
<path d="M0 14H16C16 15.1046 15.1046 16 14 16H2C0.895431 16 0 15.1046 0 14Z" fill="#5F6A72"/>
<path d="M8 14H16C16 15.1046 15.1046 16 14 16H8V14Z" fill="#8999A3"/>
<path fill-rule="evenodd" clip-rule="evenodd" d="M3.39844 6.99844C3.39844 4.45793 5.45793 2.39844 7.99844 2.39844C10.5389 2.39844 12.5984 4.45793 12.5984 6.99844C12.5984 9.53895 10.5389 11.5984 7.99844 11.5984C5.45793 11.5984 3.39844 9.53895 3.39844 6.99844ZM4.59844 6.99844C4.59844 5.67926 5.34973 4.53555 6.44778 3.97183C6.41643 4.04866 6.38786 4.12616 6.36187 4.20347C6.09985 4.98261 6 5.99486 6 6.99922C6 6.99896 6 6.99948 6 6.99922L4.59844 7C4.59844 6.99948 4.59844 6.99896 4.59844 6.99844ZM4.74836 8C5.01959 8.8812 5.63936 9.60967 6.44674 10.0245C6.4158 9.94848 6.38757 9.8718 6.36185 9.79532C6.18742 9.27648 6.08486 8.65432 6.03579 8H4.74836ZM7.0389 8C7.08536 8.56515 7.17423 9.07363 7.30972 9.47666C7.53377 10.1431 7.79622 10.3 8 10.3C8.20378 10.3 8.46623 10.1431 8.69028 9.47666C8.82578 9.07363 8.91464 8.56515 8.9611 8H7.0389ZM9.96421 8C9.91514 8.65432 9.81258 9.27648 9.63815 9.79532C9.61266 9.87112 9.58471 9.94712 9.55409 10.0225C10.3595 9.60729 10.9777 8.87976 11.2485 8H9.96421ZM11.3984 7H10C10 6.99974 10 7.00026 10 7C10 5.99564 9.90015 4.98261 9.63813 4.20347C9.61237 4.12684 9.58407 4.05002 9.55305 3.97387C10.649 4.53829 11.3984 5.68084 11.3984 6.99844C11.3984 6.99896 11.3984 6.99948 11.3984 7ZM9 7H7C7 6.99974 7 7.00026 7 7C7 6.04068 7.09787 5.15215 7.30971 4.52221C7.53371 3.8561 7.79611 3.69922 8 3.69922C8.20389 3.69922 8.46629 3.8561 8.69029 4.52221C8.90213 5.15215 9 6.04068 9 7C9 7.00026 9 6.99974 9 7Z" fill="white"/>
</svg>
