<svg width="32" height="32" viewBox="0 0 32 32" fill="none" xmlns="http://www.w3.org/2000/svg">
<path d="M0 4C0 1.79086 1.79086 0 4 0H28C30.2091 0 32 1.79086 32 4V28C32 30.2091 30.2091 32 28 32H4C1.79086 32 0 30.2091 0 28V4Z" fill="#EB2F3B"/>
<path d="M0 26H32V28C32 30.2091 30.2091 32 28 32H4C1.79086 32 0 30.2091 0 28V26Z" fill="#CE1E29"/>
<path d="M28 8.74206e-08C30.2091 1.83985e-07 32 1.79086 32 4L32 28C32 30.2091 30.2091 32 28 32H26L26 0L28 8.74206e-08Z" fill="#FF4F5A"/>
<path d="M26 32H28C30.2091 32 32 30.2091 32 28L32 26H26V32Z" fill="#EB2F3B"/>
<path fill-rule="evenodd" clip-rule="evenodd" d="M12.0034 6H16.5023C18.988 6 21.0029 8.01535 21.0023 10.501C21.0018 12.9859 18.9872 15 16.5023 15H14.0018L14.0034 21H10.0007C7.79201 21 6.00132 19.2098 6.00073 17.0011C6.00014 14.7915 7.79118 13 10.0007 13H12.0018L12.0034 6ZM12.0018 15H10.0007C8.89595 15 8.00044 15.8958 8.00073 17.0005C8.00103 18.1049 8.89637 19 10.0007 19H12.0029L12.0018 15ZM14.0018 13H16.5023C17.8828 13 19.002 11.8811 19.0023 10.5006C19.0026 9.11964 17.8833 8 16.5023 8H14.0029L14.0018 13Z" fill="white"/>
</svg>
