<svg width="14" height="14" viewBox="0 0 14 14" fill="none" xmlns="http://www.w3.org/2000/svg">
<g id="group-0">
<path id="area1" d="M5.75 5.45C5.75 5.61569 5.61569 5.75 5.45 5.75H1.05C0.884315 5.75 0.75 5.61569 0.75 5.45V3.25C0.75 1.86929 1.8694 0.75 3.25011 0.75C4.26158 0.75 5.24143 0.75 5.45 0.75C5.61569 0.75 5.75 0.884315 5.75 1.05V5.45Z" stroke="#253453" stroke-opacity="0.9" stroke-width="1.5" stroke-linejoin="round"/>
<path id="Rectangle 41429" d="M8.25 1.25C8.25 0.973858 8.47386 0.75 8.75 0.75H12.75C13.0261 0.75 13.25 0.973858 13.25 1.25V5.25C13.25 5.52614 13.0261 5.75 12.75 5.75H8.75C8.47386 5.75 8.25 5.52614 8.25 5.25V1.25Z" stroke="#253453" stroke-opacity="0.9" stroke-width="1.5" stroke-linejoin="round"/>
<path id="Rectangle 41430" d="M0.75 8.75C0.75 8.47386 0.973858 8.25 1.25 8.25H5.25C5.52614 8.25 5.75 8.47386 5.75 8.75V12.75C5.75 13.0261 5.52614 13.25 5.25 13.25H1.25C0.973858 13.25 0.75 13.0261 0.75 12.75V8.75Z" stroke="#253453" stroke-opacity="0.9" stroke-width="1.5" stroke-linejoin="round"/>
<path id="Vector 837" d="M8.25 10.75H13.25" stroke="#253453" stroke-opacity="0.9" stroke-width="1.5" stroke-linecap="round"/>
<path id="Vector 838" d="M10.75 8.25L10.75 13.25" stroke="#253453" stroke-opacity="0.9" stroke-width="1.5" stroke-linecap="round"/>
</g>
</svg>
