<svg width="17" height="16" viewBox="0 0 17 16" fill="none" xmlns="http://www.w3.org/2000/svg">
<path d="M7.43575 1.3H9.56435L10.469 3.56383C10.7676 3.70631 11.0494 3.8802 11.3105 4.08141L13.7649 3.72746L14.8292 5.57259L13.2085 7.63413C13.2184 7.76381 13.2234 7.87359 13.2234 8.02721C13.2234 8.16131 13.2196 8.25702 13.2121 8.37041L14.8292 10.4275L13.7649 12.2726L11.3691 11.9271C11.084 12.154 10.7733 12.3479 10.4423 12.5033L9.56441 14.7H7.43581L6.55795 12.5033C6.22689 12.3479 5.91616 12.154 5.63104 11.9271L3.23523 12.2726L2.17093 10.4275L3.78807 8.37045C3.78053 8.25706 3.7767 8.1426 3.7767 8.02721C3.7767 7.89492 3.78174 7.76385 3.79162 7.63419L2.1709 5.5726L3.2352 3.72747L5.68963 4.08143C5.95074 3.88021 6.23252 3.70633 6.53105 3.56385L7.43575 1.3Z" stroke="#6B6B6B" stroke-width="1.5" stroke-linejoin="round"/>
<path d="M10.25 8.00623C10.25 8.97363 9.4665 9.75786 8.5 9.75786C7.5335 9.75786 6.75 8.97363 6.75 8.00623C6.75 7.03884 7.5335 6.25461 8.5 6.25461C9.4665 6.25461 10.25 7.03884 10.25 8.00623Z" stroke="#6B6B6B" stroke-width="1.5" stroke-linejoin="round"/>
</svg>
