<svg width="16" height="16" viewBox="0 0 16 16" fill="none" xmlns="http://www.w3.org/2000/svg">
<path fill-rule="evenodd" clip-rule="evenodd" d="M12 5C12 2.79086 10.2091 1 8 1C5.79086 1 4 2.79086 4 5V6H3.5C2.67157 6 2 6.67157 2 7.5V13.5C2 14.3284 2.67157 15 3.5 15H12.5C13.3284 15 14 14.3284 14 13.5V7.5C14 6.67157 13.3284 6 12.5 6H12V5ZM10.3 6V5C10.3 3.72974 9.27026 2.7 8 2.7C6.78267 2.7 5.78623 3.64572 5.70531 4.84253L5.7 5V6H10.3ZM8.85 10.7361C9.24263 10.4656 9.5 10.0128 9.5 9.5C9.5 8.67157 8.82843 8 8 8C7.17157 8 6.5 8.67157 6.5 9.5C6.5 10.0128 6.75737 10.4656 7.15 10.7361V12.15C7.15 12.6194 7.53056 13 8 13C8.46944 13 8.85 12.6194 8.85 12.15V10.7361Z" fill="#253453" fill-opacity="0.5"/>
</svg>
