<svg width="36" height="36" viewBox="0 0 36 36" fill="none" xmlns="http://www.w3.org/2000/svg">
<circle cx="18" cy="18" r="18" fill="#F1F6FF"/>
<path fill-rule="evenodd" clip-rule="evenodd" d="M13.5 10.0002C12.1193 10.0002 11 11.1195 11 12.5002V23.5002C11 24.881 12.1193 26.0002 13.5 26.0002H22.5C23.8807 26.0002 25 24.881 25 23.5002V15.6216C25 14.9585 24.7366 14.3226 24.2678 13.8538L21.1464 10.7325C20.6776 10.2636 20.0417 10.0002 19.3787 10.0002H13.5ZM13 23.5002C13 23.7764 13.2239 24.0002 13.5 24.0002H22.5C22.7761 24.0002 23 23.7764 23 23.5002V16.0002H20.5C19.6716 16.0002 19 15.3287 19 14.5002V12.0002H13.5C13.2239 12.0002 13 12.2241 13 12.5002V23.5002Z" fill="#458BFA"/>
<path d="M20.5 16.0002C19.6716 16.0002 19 15.3287 19 14.5002V10.0002H19.3787C20.0417 10.0002 20.6776 10.2636 21.1464 10.7325L24.2678 13.8538C24.7366 14.3226 25 14.9585 25 15.6216V16.0002H20.5Z" fill="#1F69E0"/>
<path d="M15 21.0002C15 20.448 15.4477 20.0002 16 20.0002H20C20.5523 20.0002 21 20.448 21 21.0002C21 21.5525 20.5523 22.0002 20 22.0002H16C15.4477 22.0002 15 21.5525 15 21.0002Z" fill="#1F69E0"/>
</svg>
