<svg width="32" height="32" viewBox="0 0 32 32" fill="none" xmlns="http://www.w3.org/2000/svg">
<path d="M0 4C0 1.79086 1.79086 0 4 0H28C30.2091 0 32 1.79086 32 4V28C32 30.2091 30.2091 32 28 32H4C1.79086 32 0 30.2091 0 28V4Z" fill="#6F7B84"/>
<path d="M0 26H32V28C32 30.2091 30.2091 32 28 32H4C1.79086 32 0 30.2091 0 28V26Z" fill="#5F6A72"/>
<path d="M28 8.74206e-08C30.2091 1.83985e-07 32 1.79086 32 4L32 28C32 30.2091 30.2091 32 28 32H26L26 0L28 8.74206e-08Z" fill="#8999A3"/>
<path d="M26 32H28C30.2091 32 32 30.2091 32 28L32 26H26V32Z" fill="#6F7B84"/>
<path fill-rule="evenodd" clip-rule="evenodd" d="M8 5V15H13V17H8V19H13V21H18V19H13V17H18V15H13V13H18V5H8ZM16 7H10V11H16V7Z" fill="white"/>
</svg>
