<svg width="32" height="32" viewBox="0 0 32 32" fill="none" xmlns="http://www.w3.org/2000/svg">
<path d="M0 4C0 1.79086 1.79086 0 4 0H28C30.2091 0 32 1.79086 32 4V28C32 30.2091 30.2091 32 28 32H4C1.79086 32 0 30.2091 0 28V4Z" fill="#1D70F5"/>
<path d="M0 26H32V28C32 30.2091 30.2091 32 28 32H4C1.79086 32 0 30.2091 0 28V26Z" fill="#0059E8"/>
<path d="M28 8.74206e-08C30.2091 1.83985e-07 32 1.79086 32 4L32 28C32 30.2091 30.2091 32 28 32H26L26 0L28 8.74206e-08Z" fill="#3C87FF"/>
<path d="M26 32H28C30.2091 32 32 30.2091 32 28L32 26H26V32Z" fill="#1D70F5"/>
<path d="M7.99984 20L4.45557 6H6.99989L9.50244 17.5L12.0024 7H14.0024L16.6899 17.5L19.0024 6H21.5024L18.2797 20H15.2161L13.0794 11.9103L11.0762 20H7.99984Z" fill="white"/>
</svg>
