<svg width="16" height="16" viewBox="0 0 16 16" fill="none" xmlns="http://www.w3.org/2000/svg">
<path fill-rule="evenodd" clip-rule="evenodd" d="M9.7384 2.02338C8.97379 0.664081 7.01671 0.664083 6.2521 2.02338L0.261714 12.0196C-0.488216 13.3528 0.475212 15.0001 2.00486 15.0001H13.9848C15.5145 15.0001 16.4921 13.3528 15.7422 12.0196L9.7384 2.02338ZM9 6C9 5.44772 8.55229 5 8 5C7.44772 5 7 5.44772 7 6V9C7 9.55229 7.44772 10 8 10C8.55229 10 9 9.55229 9 9V6ZM8 11C7.44772 11 7 11.4477 7 12C7 12.5523 7.44772 13 8 13C8.55229 13 9 12.5523 9 12C9 11.4477 8.55229 11 8 11Z" fill="#E2651A"/>
</svg>
