<svg width="17" height="16" viewBox="0 0 17 16" fill="none" xmlns="http://www.w3.org/2000/svg">
<path d="M5.24988 5.74997H3.75C2.92157 5.74997 2.25 6.42154 2.25 7.24997V9.99969C2.25 10.69 2.80964 11.2497 3.5 11.2497H4.94999C5.11568 11.2497 5.25 11.1154 5.24999 10.9497L5.24988 5.74997ZM5.24988 5.74997L5.25 5.24997C5.25 3.31697 6.72581 1.74997 8.50012 1.74997C10.2744 1.74997 11.7447 3.3156 11.7447 5.2486V10.1266C11.7447 11.9621 11.0001 14 8.25012 14.2499M11.7478 5.74997L13.2507 5.75066C14.0788 5.75104 14.75 6.4225 14.75 7.25066V9.74925C14.75 10.5779 14.078 11.2496 13.2493 11.2493L11.7447 11.2486" stroke="#6B6B6B" stroke-width="1.5" stroke-linecap="round" stroke-linejoin="round"/>
</svg>
