<svg width="20" height="12" viewBox="0 0 20 12" fill="none" xmlns="http://www.w3.org/2000/svg">
<g clip-path="url(#clip0_1867_2286)">
<path fill-rule="evenodd" clip-rule="evenodd" d="M2 1H18C18.5523 1 19 1.44772 19 2V10C19 10.5523 18.5523 11 18 11H2C1.44772 11 1 10.5523 1 10V2C1 1.44772 1.44772 1 2 1ZM0 2C0 0.895431 0.895431 0 2 0H18C19.1046 0 20 0.895431 20 2V10C20 11.1046 19.1046 12 18 12H2C0.895431 12 0 11.1046 0 10V2ZM9.45861 3H11.1404L10.084 9H8.40219L9.45861 3ZM3.09998 3.00195H4.60925L5.43448 6.51555L6.80475 3.00195H8.47325L5.91251 9H4.41957L3.09998 3.00195ZM12.5245 3L11.4492 9H13.0302L13.4217 7.10505C13.4909 7.10534 13.5616 7.10606 13.6336 7.10679H13.6336C14.7884 7.1185 16.2701 7.13352 16.8573 5.44623C17.3438 4.04815 16.4509 3.20971 15.8328 3.05901C15.5451 3.00037 14.397 2.99868 14.1497 3.00037L12.5245 3ZM13.8688 4.23389L13.5977 5.80127L14.73 5.80128C15.1322 5.80128 15.4766 5.51318 15.5477 5.11733L15.5659 5.0159C15.639 4.60838 15.3258 4.23389 14.9118 4.23389H13.8688Z" fill="white"/>
</g>
<defs>
<clipPath id="clip0_1867_2286">
<rect width="20" height="12" rx="2" fill="white"/>
</clipPath>
</defs>
</svg>
